<svg xmlns="http://www.w3.org/2000/svg" xmlns:xlink="http://www.w3.org/1999/xlink" width="1366" zoomAndPan="magnify" viewBox="0 0 1024.5 657.750002" height="768" preserveAspectRatio="xMidYMid meet" version="1.0"><defs><clipPath id="270bc2cf3e"><path d="M 319.714844 296.140625 L 958.265625 296.140625 L 958.265625 468.28125 L 319.714844 468.28125 Z M 319.714844 296.140625 " clip-rule="nonzero"/></clipPath><clipPath id="4ad68b7073"><path d="M 66.5 217.792969 L 395 217.792969 L 395 592.03125 L 66.5 592.03125 Z M 66.5 217.792969 " clip-rule="nonzero"/></clipPath></defs><g clip-path="url(#270bc2cf3e)"><path fill="#f2f6f0" d="M 319.71875 468.261719 L 863.445312 468.261719 C 989.875 468.261719 989.875 296.640625 863.445312 296.640625 L 319.71875 296.640625 L 319.71875 468.261719 " fill-opacity="1" fill-rule="nonzero"/></g><g clip-path="url(#4ad68b7073)"><path fill="#5dbf46" d="M 230.679688 217.792969 C 140.007812 217.792969 66.5 291.339844 66.5 382.066406 C 66.5 427.457031 84.902344 468.546875 114.652344 498.28125 L 83.867188 592.03125 L 181.242188 538.746094 C 196.847656 543.671875 213.453125 546.332031 230.679688 546.332031 C 321.355469 546.332031 394.863281 472.789062 394.863281 382.066406 C 394.863281 291.339844 321.355469 217.792969 230.679688 217.792969 " fill-opacity="1" fill-rule="nonzero"/></g><path fill="#5dbf46" d="M 500.472656 361.519531 L 485.59375 366.5 C 483.59375 360.585938 479.355469 357.632812 472.882812 357.632812 C 465.96875 357.632812 462.515625 359.875 462.515625 364.363281 C 462.515625 366.152344 463.160156 367.667969 464.453125 368.90625 C 465.746094 370.148438 468.667969 371.226562 473.21875 372.140625 C 480.828125 373.675781 486.398438 375.230469 489.933594 376.796875 C 493.464844 378.367188 496.441406 380.890625 498.863281 384.375 C 501.285156 387.859375 502.496094 391.75 502.496094 396.054688 C 502.496094 402.804688 499.898438 408.640625 494.710938 413.5625 C 489.519531 418.488281 481.820312 420.949219 471.621094 420.949219 C 463.96875 420.949219 457.457031 419.210938 452.085938 415.722656 C 446.710938 412.238281 443.167969 407.070312 441.457031 400.210938 L 457.648438 396.542969 C 459.464844 403.511719 464.523438 406.996094 472.820312 406.996094 C 476.824219 406.996094 479.808594 406.222656 481.773438 404.671875 C 483.738281 403.121094 484.71875 401.269531 484.71875 399.113281 C 484.71875 396.925781 483.828125 395.230469 482.042969 394.027344 C 480.257812 392.820312 476.820312 391.691406 471.71875 390.628906 C 462.21875 388.660156 455.445312 385.96875 451.402344 382.554688 C 447.359375 379.144531 445.339844 374.15625 445.339844 367.589844 C 445.339844 360.953125 447.75 355.351562 452.578125 350.792969 C 457.40625 346.230469 463.953125 343.953125 472.222656 343.953125 C 486.867188 343.953125 496.28125 349.808594 500.472656 361.519531 " fill-opacity="1" fill-rule="nonzero"/><path fill="#5dbf46" d="M 567.257812 359.328125 L 531.703125 359.328125 L 531.703125 374.652344 L 559.652344 374.652344 L 559.652344 388.71875 L 531.703125 388.71875 L 531.703125 405.027344 L 567.257812 405.027344 L 567.257812 419.800781 L 513.929688 419.800781 L 513.929688 345.101562 L 567.257812 345.101562 L 567.257812 359.328125 " fill-opacity="1" fill-rule="nonzero"/><path fill="#5dbf46" d="M 595.371094 358.398438 L 595.371094 377.441406 L 606.089844 377.441406 C 609.589844 377.441406 612.132812 377.195312 613.71875 376.707031 C 615.304688 376.210938 616.71875 375.117188 617.957031 373.421875 C 619.199219 371.722656 619.816406 369.78125 619.816406 367.59375 C 619.816406 365.511719 619.199219 363.652344 617.957031 362.011719 C 616.71875 360.371094 615.367188 359.355469 613.910156 358.972656 C 612.453125 358.589844 609.71875 358.398438 605.707031 358.398438 Z M 595.371094 390.195312 L 595.371094 419.800781 L 577.757812 419.800781 L 577.757812 345.101562 L 610.574219 345.101562 C 616.628906 345.101562 621.484375 345.804688 625.148438 347.207031 C 628.816406 348.609375 631.851562 351.191406 634.257812 354.945312 C 636.664062 358.703125 637.867188 362.875 637.867188 367.46875 C 637.867188 376.4375 633.546875 382.875 624.902344 386.773438 L 638.683594 419.800781 L 619.363281 419.800781 L 607.898438 390.195312 L 595.371094 390.195312 " fill-opacity="1" fill-rule="nonzero"/><path fill="#5dbf46" d="M 705.527344 345.101562 L 682.972656 419.800781 L 664.171875 419.800781 L 641.75 345.101562 L 660.371094 345.101562 L 675.308594 398.511719 L 690.859375 345.101562 L 705.527344 345.101562 " fill-opacity="1" fill-rule="nonzero"/><path fill="#5dbf46" d="M 729.699219 345.101562 L 729.699219 419.800781 L 712.253906 419.800781 L 712.253906 345.101562 L 729.699219 345.101562 " fill-opacity="1" fill-rule="nonzero"/><path fill="#5dbf46" d="M 804.910156 372.902344 L 786.582031 374.050781 C 786.328125 363.507812 782.214844 358.234375 774.253906 358.234375 C 765.117188 358.234375 760.546875 366.351562 760.546875 382.585938 C 760.546875 391.964844 761.789062 398.320312 764.277344 401.660156 C 766.761719 405 770.230469 406.667969 774.691406 406.667969 C 781.917969 406.667969 786.34375 401.960938 787.949219 392.546875 L 804.910156 393.585938 C 803.8125 402.527344 800.484375 409.320312 794.921875 413.972656 C 789.363281 418.625 782.554688 420.949219 774.496094 420.949219 C 764.613281 420.949219 756.582031 417.539062 750.402344 410.714844 C 744.222656 403.894531 741.132812 394.464844 741.132812 382.425781 C 741.132812 371.148438 744.121094 361.921875 750.101562 354.730469 C 756.085938 347.546875 764.25 343.953125 774.601562 343.953125 C 792.546875 343.953125 802.644531 353.601562 804.910156 372.902344 " fill-opacity="1" fill-rule="nonzero"/><path fill="#5dbf46" d="M 868.296875 359.328125 L 832.746094 359.328125 L 832.746094 374.652344 L 860.695312 374.652344 L 860.695312 388.71875 L 832.746094 388.71875 L 832.746094 405.027344 L 868.296875 405.027344 L 868.296875 419.800781 L 814.96875 419.800781 L 814.96875 345.101562 L 868.296875 345.101562 L 868.296875 359.328125 " fill-opacity="1" fill-rule="nonzero"/><path fill="#f2f6f0" d="M 170.722656 427.648438 L 124.761719 427.648438 C 121.28125 427.648438 118.171875 425.457031 117 422.171875 C 115.828125 418.890625 116.839844 415.226562 119.535156 413.015625 C 146.84375 390.617188 157.574219 370.835938 156.097656 361.171875 C 155.777344 359.0625 154.796875 356.398438 150.058594 354.488281 C 143.128906 351.6875 132.472656 357.679688 129.285156 360 C 125.613281 362.675781 120.457031 361.878906 117.773438 358.210938 C 115.089844 354.546875 115.859375 349.410156 119.519531 346.707031 C 121.519531 345.230469 139.558594 332.460938 156.226562 339.183594 C 165.292969 342.839844 171.039062 349.765625 172.398438 358.675781 C 174.628906 373.265625 165.195312 391.824219 146.125 411.148438 L 170.722656 411.148438 C 175.273438 411.148438 178.96875 414.839844 178.96875 419.398438 C 178.96875 423.953125 175.273438 427.648438 170.722656 427.648438 " fill-opacity="1" fill-rule="nonzero"/><path fill="#f2f6f0" d="M 202.703125 387.035156 L 215.382812 387.035156 L 215.382812 370.183594 Z M 223.625 427.648438 C 219.074219 427.648438 215.382812 423.953125 215.382812 419.398438 L 215.382812 403.535156 L 186.179688 403.535156 C 183.050781 403.535156 180.195312 401.769531 178.800781 398.96875 C 177.40625 396.171875 177.710938 392.824219 179.589844 390.324219 L 217.039062 340.542969 C 219.171875 337.710938 222.878906 336.5625 226.242188 337.683594 C 229.605469 338.804688 231.871094 341.957031 231.871094 345.503906 L 231.871094 387.035156 L 232.457031 387.035156 C 237.007812 387.035156 240.703125 390.726562 240.703125 395.285156 C 240.703125 399.84375 237.007812 403.535156 232.457031 403.535156 L 231.871094 403.535156 L 231.871094 419.398438 C 231.871094 423.953125 228.179688 427.648438 223.625 427.648438 " fill-opacity="1" fill-rule="nonzero"/><path fill="#f2f6f0" d="M 247.5625 438.832031 C 246.546875 438.832031 245.515625 438.640625 244.511719 438.242188 C 240.28125 436.554688 238.222656 431.753906 239.90625 427.523438 L 278.257812 331.269531 C 279.945312 327.035156 284.738281 324.972656 288.972656 326.660156 C 293.203125 328.347656 295.265625 333.144531 293.578125 337.378906 L 255.222656 433.632812 C 253.9375 436.863281 250.839844 438.832031 247.5625 438.832031 " fill-opacity="1" fill-rule="nonzero"/><path fill="#f2f6f0" d="M 311.972656 427.492188 C 311.058594 427.492188 310.125 427.339844 309.214844 427.011719 C 304.921875 425.488281 302.679688 420.773438 304.203125 416.480469 L 326.410156 353.914062 L 303.382812 353.914062 C 298.828125 353.914062 295.136719 350.222656 295.136719 345.664062 C 295.136719 341.105469 298.828125 337.414062 303.382812 337.414062 L 338.089844 337.414062 C 340.765625 337.414062 343.277344 338.714844 344.824219 340.90625 C 346.367188 343.09375 346.753906 345.898438 345.855469 348.425781 L 319.742188 422 C 318.542969 425.378906 315.363281 427.492188 311.972656 427.492188 " fill-opacity="1" fill-rule="nonzero"/><path fill="#f2f6f0" d="M 338.089844 390.703125 L 306.476562 390.703125 C 301.921875 390.703125 298.230469 387.007812 298.230469 382.453125 C 298.230469 377.894531 301.921875 374.203125 306.476562 374.203125 L 338.089844 374.203125 C 342.640625 374.203125 346.332031 377.894531 346.332031 382.453125 C 346.332031 387.007812 342.640625 390.703125 338.089844 390.703125 " fill-opacity="1" fill-rule="nonzero"/></svg>