<svg xmlns="http://www.w3.org/2000/svg" xmlns:xlink="http://www.w3.org/1999/xlink" width="1366" zoomAndPan="magnify" viewBox="0 0 1024.5 576" height="768" preserveAspectRatio="xMidYMid meet" version="1.0"><defs><clipPath id="62523dcb08"><path d="M 57.601562 76.117188 L 512 76.117188 L 512 391.867188 L 57.601562 391.867188 Z M 57.601562 76.117188 " clip-rule="nonzero"/></clipPath></defs><g clip-path="url(#62523dcb08)"><path fill="#5dbf46" d="M 472.402344 76.117188 L 97.300781 76.117188 C 75.523438 76.117188 57.816406 93.820312 57.816406 115.585938 L 57.816406 352.398438 C 57.816406 374.164062 75.523438 391.867188 97.300781 391.867188 L 472.402344 391.867188 C 494.175781 391.867188 511.886719 374.164062 511.886719 352.398438 L 511.886719 115.585938 C 511.886719 93.820312 494.175781 76.117188 472.402344 76.117188 Z M 117.042969 322.796875 C 119.429688 283.0625 170.574219 288.851562 178.230469 268.242188 C 178.863281 261.1875 178.230469 256.273438 178.230469 249.828125 C 175.035156 248.152344 166.101562 239.082031 164.71875 228.988281 C 164.71875 228.988281 157.484375 225.554688 157.089844 214.683594 C 156.882812 208.917969 160.929688 204.835938 160.929688 204.835938 C 153.386719 175.914062 156.652344 145.898438 195.386719 145.1875 C 205.070312 145.1875 212.355469 149.863281 215.257812 154.976562 C 242.207031 154.976562 235.207031 192.558594 231.121094 204.84375 C 232.632812 206.363281 234.496094 210.519531 234.496094 216.140625 C 234.496094 224.183594 226.867188 229 226.867188 229 C 225.417969 239.25 218.191406 247.726562 213.777344 249.839844 C 213.777344 256.28125 213.144531 261.207031 213.777344 268.25 C 221.449219 288.851562 272.589844 283.0625 274.980469 322.796875 Z M 442.789062 293.195312 L 324.335938 293.195312 C 318.875 293.195312 314.464844 288.785156 314.464844 283.328125 C 314.464844 277.871094 318.875 273.460938 324.335938 273.460938 L 442.789062 273.460938 C 448.246094 273.460938 452.660156 277.871094 452.660156 283.328125 C 452.660156 288.785156 448.246094 293.195312 442.789062 293.195312 Z M 442.789062 243.859375 L 324.335938 243.859375 C 318.875 243.859375 314.464844 239.4375 314.464844 233.992188 C 314.464844 228.546875 318.875 224.125 324.335938 224.125 L 442.789062 224.125 C 448.246094 224.125 452.660156 228.546875 452.660156 233.992188 C 452.660156 239.4375 448.246094 243.859375 442.789062 243.859375 Z M 442.789062 194.523438 L 324.335938 194.523438 C 318.875 194.523438 314.464844 190.101562 314.464844 184.65625 C 314.464844 179.210938 318.875 174.789062 324.335938 174.789062 L 442.789062 174.789062 C 448.246094 174.789062 452.660156 179.210938 452.660156 184.65625 C 452.660156 190.101562 448.246094 194.523438 442.789062 194.523438 Z M 442.789062 194.523438 " fill-opacity="1" fill-rule="nonzero"/></g></svg>