<svg xmlns="http://www.w3.org/2000/svg" xmlns:xlink="http://www.w3.org/1999/xlink" width="1366" zoomAndPan="magnify" viewBox="0 0 1024.5 576" height="768" preserveAspectRatio="xMidYMid meet" version="1.0"><defs><clipPath id="028237a1e5"><path d="M 350.507812 214 L 433 214 L 433 285 L 350.507812 285 Z M 350.507812 214 " clip-rule="nonzero"/></clipPath><clipPath id="e5a41b9a93"><path d="M 360 324 L 662 324 L 662 403.191406 L 360 403.191406 Z M 360 324 " clip-rule="nonzero"/></clipPath><clipPath id="12051066d8"><path d="M 373 181 L 577 181 L 577 403.191406 L 373 403.191406 Z M 373 181 " clip-rule="nonzero"/></clipPath><clipPath id="c1bce05f9d"><path d="M 489 230 L 673.757812 230 L 673.757812 321 L 489 321 Z M 489 230 " clip-rule="nonzero"/></clipPath><clipPath id="ba1d587b35"><path d="M 464 172.941406 L 641 172.941406 L 641 245 L 464 245 Z M 464 172.941406 " clip-rule="nonzero"/></clipPath></defs><g clip-path="url(#028237a1e5)"><path fill="#9e4d41" d="M 432.625 245.140625 L 432.625 252.003906 C 432.625 269.871094 418.144531 284.355469 400.277344 284.355469 L 383.914062 284.355469 C 376.65625 284.355469 370.769531 278.46875 370.769531 271.210938 L 370.769531 257.875 C 369.652344 258.109375 368.496094 258.234375 367.308594 258.234375 C 358.03125 258.234375 350.507812 250.714844 350.507812 241.433594 C 350.507812 232.15625 358.03125 224.632812 367.308594 224.632812 C 370.671875 224.632812 373.796875 225.625 376.425781 227.324219 C 382.023438 219.394531 391.253906 214.210938 401.699219 214.210938 C 418.777344 214.210938 432.625 228.058594 432.625 245.140625 Z M 432.625 245.140625 " fill-opacity="1" fill-rule="nonzero"/></g><path fill="#000000" d="M 579.476562 386.640625 L 504.269531 386.640625 L 504.269531 396.492188 L 583.304688 396.492188 C 584.355469 396.492188 585.410156 396.492188 586.464844 396.492188 C 594.050781 365.71875 601.640625 334.945312 609.226562 304.171875 C 606.277344 304.171875 603.324219 304.171875 600.375 304.171875 C 593.410156 331.660156 586.445312 359.148438 579.476562 386.640625 Z M 579.476562 386.640625 " fill-opacity="1" fill-rule="nonzero"/><g clip-path="url(#e5a41b9a93)"><path fill="#cf9dc8" d="M 661.371094 403.160156 L 444.414062 403.160156 L 444.414062 396.492188 L 661.371094 396.492188 Z M 365.171875 324.289062 L 360.246094 324.289062 L 360.246094 403.160156 L 381.292969 403.160156 L 381.292969 340.410156 C 381.292969 331.507812 374.078125 324.289062 365.171875 324.289062 Z M 365.171875 324.289062 " fill-opacity="1" fill-rule="nonzero"/></g><path fill="#f9b9ac" d="M 427.558594 241.441406 L 427.558594 266.125 C 427.558594 266.472656 427.546875 266.8125 427.527344 267.148438 C 427.148438 274.234375 422.824219 280.265625 416.714844 283.09375 L 416.714844 307.132812 C 412.011719 310.445312 407.308594 313.753906 402.605469 317.066406 C 397.929688 313.753906 393.25 310.445312 388.570312 307.132812 L 388.570312 241.433594 C 401.5625 241.433594 414.558594 241.433594 427.558594 241.441406 Z M 489.851562 389.257812 C 489.953125 390.089844 490.574219 390.710938 491.300781 390.710938 C 500.378906 391.074219 509.503906 391.4375 518.582031 391.851562 C 519.617188 391.902344 520.394531 390.8125 520.136719 389.726562 C 519.878906 388.6875 519.464844 387.597656 518.738281 386.613281 C 516.457031 383.347656 512.511719 382.929688 506.703125 382.464844 C 500.636719 381.996094 495.296875 381.632812 490.730469 381.425781 C 489.796875 381.375 489.019531 382.308594 489.125 383.34375 C 489.382812 385.265625 489.644531 387.289062 489.851562 389.257812 Z M 489.851562 389.257812 " fill-opacity="1" fill-rule="nonzero"/><g clip-path="url(#12051066d8)"><path fill="#8d53a1" d="M 576.855469 192.222656 L 576.855469 221.875 C 576.855469 227.535156 572.269531 232.121094 566.609375 232.121094 L 564.011719 232.121094 L 557.019531 246.449219 L 550.144531 232.121094 L 534.964844 232.121094 C 529.304688 232.121094 524.71875 227.535156 524.71875 221.875 L 524.71875 192.222656 C 524.71875 186.5625 529.304688 181.976562 534.964844 181.976562 L 566.609375 181.976562 C 572.269531 181.976562 576.855469 186.5625 576.855469 192.222656 Z M 494.285156 378.003906 C 478.984375 374.234375 463.683594 370.46875 448.4375 366.640625 L 439.222656 350.414062 C 432.152344 336.09375 425.140625 321.777344 418.070312 307.460938 C 407.347656 306.824219 396.625 306.1875 385.902344 305.492188 C 384.046875 307.636719 381.148438 311.289062 378.945312 316.445312 C 371.816406 332.90625 379.0625 346.585938 379.875 366.582031 C 380.222656 374.988281 379.527344 387.507812 373.960938 403.15625 C 395.695312 403.15625 417.488281 403.15625 439.222656 403.15625 L 439.222656 396.492188 L 494.285156 396.492188 L 494.285156 384.929688 C 494.285156 382.625 494.285156 380.320312 494.285156 378.003906 Z M 494.285156 378.003906 " fill-opacity="1" fill-rule="nonzero"/></g><path fill="#9e4d41" d="M 430.429688 244.363281 C 416.476562 253.414062 402.523438 262.46875 388.570312 271.523438 C 388.152344 271.011719 378.503906 258.851562 383.507812 247.59375 C 384.265625 245.890625 385.707031 243.421875 388.570312 241.066406 C 400.96875 238.191406 413.367188 235.3125 425.765625 232.4375 C 427.320312 236.414062 428.875 240.386719 430.429688 244.363281 Z M 430.429688 244.363281 " fill-opacity="1" fill-rule="nonzero"/><path fill="#f9b9ac" d="M 397.195312 245.933594 C 392.433594 245.933594 388.570312 249.796875 388.570312 254.558594 L 388.570312 275.816406 L 405.824219 275.816406 L 405.824219 254.558594 C 405.820312 249.796875 401.960938 245.933594 397.195312 245.933594 Z M 397.195312 245.933594 " fill-opacity="1" fill-rule="nonzero"/><path fill="#000000" d="M 418.011719 297.320312 C 418.59375 301.839844 419.171875 306.363281 419.808594 310.882812 C 407.40625 309.375 395.0625 307.8125 382.65625 306.246094 C 383.933594 301.492188 385.207031 296.796875 386.539062 292.046875 Z M 498.96875 377.296875 C 495.683594 376.378906 492.398438 375.464844 489.113281 374.554688 L 489.113281 396.492188 L 498.96875 396.492188 C 498.96875 390.09375 498.96875 383.695312 498.96875 377.296875 Z M 428.664062 280.417969 C 426.714844 280.417969 425.113281 281.484375 424.804688 282.878906 C 421.457031 283.722656 416.511719 284.226562 411.199219 282.199219 C 404.160156 279.515625 400.464844 273.917969 398.65625 269.976562 C 404.59375 268.304688 408.953125 262.863281 408.953125 256.390625 C 408.953125 251.125 406.066406 246.542969 401.796875 244.113281 C 403.515625 241.464844 406.554688 237.480469 411.441406 233.894531 C 416.519531 230.171875 421.433594 228.46875 424.53125 227.652344 C 422.054688 226.839844 417.082031 225.613281 411.242188 227.050781 C 399.585938 229.917969 394.726562 240.875 394.121094 242.300781 C 386.652344 242.671875 380.703125 248.828125 380.703125 256.390625 C 380.703125 264.191406 387.027344 270.515625 394.828125 270.515625 C 394.976562 270.515625 395.117188 270.496094 395.261719 270.492188 C 397.175781 274.996094 401.417969 282.027344 410.011719 285.304688 C 413.167969 286.511719 416.210938 286.9375 418.945312 286.9375 C 421.957031 286.9375 424.582031 286.417969 426.578125 285.839844 C 427.183594 286.125 427.894531 286.296875 428.664062 286.296875 C 430.828125 286.296875 432.585938 284.980469 432.585938 283.359375 C 432.585938 281.734375 430.828125 280.417969 428.664062 280.417969 Z M 428.664062 280.417969 " fill-opacity="1" fill-rule="nonzero"/><g clip-path="url(#c1bce05f9d)"><path fill="#f9b9ac" d="M 673.773438 245.125 L 673.773438 262.589844 C 673.773438 270.402344 667.4375 276.734375 659.628906 276.734375 L 655.992188 276.734375 L 649.445312 290.773438 L 642.292969 276.734375 L 610.832031 276.734375 C 603.019531 276.734375 596.6875 270.402344 596.6875 262.589844 L 596.6875 245.125 C 596.6875 237.3125 603.019531 230.980469 610.832031 230.980469 L 659.628906 230.980469 C 667.4375 230.980469 673.773438 237.3125 673.773438 245.125 Z M 489.800781 275.019531 L 489.800781 292.484375 C 489.800781 300.296875 496.132812 306.632812 503.945312 306.632812 L 507.582031 306.632812 L 514.125 320.671875 L 521.28125 306.632812 L 552.742188 306.632812 C 560.554688 306.632812 566.886719 300.296875 566.886719 292.484375 L 566.886719 275.019531 C 566.886719 267.207031 560.554688 260.875 552.742188 260.875 L 503.945312 260.875 C 496.132812 260.875 489.800781 267.207031 489.800781 275.019531 Z M 489.800781 275.019531 " fill-opacity="1" fill-rule="nonzero"/></g><path fill="#8d53a1" d="M 624.179688 253.207031 C 624.179688 255.734375 622.132812 257.78125 619.605469 257.78125 C 617.082031 257.78125 615.035156 255.734375 615.035156 253.207031 C 615.035156 250.683594 617.082031 248.636719 619.605469 248.636719 C 622.132812 248.636719 624.179688 250.683594 624.179688 253.207031 Z M 635.878906 248.636719 C 633.351562 248.636719 631.304688 250.683594 631.304688 253.207031 C 631.304688 255.734375 633.351562 257.78125 635.878906 257.78125 C 638.402344 257.78125 640.449219 255.734375 640.449219 253.207031 C 640.449219 250.683594 638.402344 248.636719 635.878906 248.636719 Z M 652.148438 248.636719 C 649.625 248.636719 647.578125 250.683594 647.578125 253.207031 C 647.578125 255.734375 649.625 257.78125 652.148438 257.78125 C 654.675781 257.78125 656.722656 255.734375 656.722656 253.207031 C 656.722656 250.683594 654.675781 248.636719 652.148438 248.636719 Z M 554.3125 273.21875 L 554.3125 271.199219 C 554.3125 270.210938 553.507812 269.40625 552.515625 269.40625 L 504.167969 269.40625 C 503.179688 269.40625 502.375 270.210938 502.375 271.199219 L 502.375 273.21875 C 502.375 274.207031 503.179688 275.011719 504.167969 275.011719 L 552.515625 275.011719 C 553.507812 275.011719 554.3125 274.207031 554.3125 273.21875 Z M 541.976562 285.363281 L 541.976562 283.347656 C 541.976562 282.355469 541.171875 281.550781 540.179688 281.550781 L 504.167969 281.550781 C 503.179688 281.550781 502.375 282.355469 502.375 283.347656 L 502.375 285.363281 C 502.375 286.351562 503.179688 287.15625 504.167969 287.15625 L 540.179688 287.15625 C 541.171875 287.15625 541.976562 286.351562 541.976562 285.363281 Z M 554.3125 297.507812 L 554.3125 295.492188 C 554.3125 294.5 553.507812 293.695312 552.515625 293.695312 L 504.167969 293.695312 C 503.179688 293.695312 502.375 294.5 502.375 295.492188 L 502.375 297.507812 C 502.375 298.5 503.179688 299.300781 504.167969 299.300781 L 552.515625 299.300781 C 553.507812 299.300781 554.3125 298.496094 554.3125 297.507812 Z M 554.3125 297.507812 " fill-opacity="1" fill-rule="nonzero"/><path fill="#f9b9ac" d="M 555.417969 200.796875 L 555.417969 224.476562 L 547.078125 224.476562 L 547.078125 208.5 L 543.136719 208.5 L 543.136719 200.796875 Z M 550.785156 188.210938 C 548.261719 188.210938 546.214844 190.257812 546.214844 192.785156 C 546.214844 195.308594 548.261719 197.355469 550.785156 197.355469 C 553.3125 197.355469 555.359375 195.308594 555.359375 192.785156 C 555.359375 190.257812 553.3125 188.210938 550.785156 188.210938 Z M 550.785156 188.210938 " fill-opacity="1" fill-rule="nonzero"/><g clip-path="url(#ba1d587b35)"><path fill="#cf9dc8" d="M 504.269531 224.476562 C 504.269531 235.417969 495.398438 244.289062 484.457031 244.289062 C 473.515625 244.289062 464.648438 235.417969 464.648438 224.476562 C 464.648438 213.535156 473.515625 204.664062 484.457031 204.664062 C 495.398438 204.664062 504.269531 213.535156 504.269531 224.476562 Z M 620.976562 172.972656 C 610.035156 172.972656 601.164062 181.84375 601.164062 192.785156 C 601.164062 203.726562 610.035156 212.597656 620.976562 212.597656 C 631.917969 212.597656 640.789062 203.726562 640.789062 192.785156 C 640.789062 181.84375 631.917969 172.972656 620.976562 172.972656 Z M 620.976562 172.972656 " fill-opacity="1" fill-rule="nonzero"/></g><path fill="#8d53a1" d="M 495.304688 232.648438 C 495.320312 233.558594 495.316406 234.464844 494.820312 235.277344 C 494.121094 236.410156 493.117188 237.101562 491.769531 237.074219 C 484.070312 236.9375 478.257812 233.515625 474.351562 226.898438 C 472.921875 224.472656 472.132812 221.8125 471.929688 218.996094 C 471.871094 218.171875 471.792969 217.3125 471.945312 216.511719 C 472.273438 214.757812 473.644531 213.6875 475.4375 213.628906 C 476.035156 213.609375 476.632812 213.628906 477.230469 213.621094 C 477.554688 213.617188 477.75 213.757812 477.851562 214.066406 C 478.402344 215.726562 478.957031 217.382812 479.511719 219.042969 C 479.617188 219.363281 479.539062 219.601562 479.242188 219.789062 C 478.597656 220.199219 477.964844 220.628906 477.332031 221.054688 C 476.753906 221.445312 476.730469 221.515625 476.992188 222.144531 C 477.988281 224.53125 479.472656 226.574219 481.34375 228.347656 C 482.949219 229.875 484.761719 231.101562 486.816406 231.953125 C 487.398438 232.195312 487.488281 232.167969 487.839844 231.644531 C 488.28125 230.984375 488.730469 230.332031 489.160156 229.664062 C 489.34375 229.378906 489.578125 229.320312 489.875 229.417969 C 491.5625 229.980469 493.25 230.535156 494.925781 231.125 C 495.09375 231.183594 495.25 231.453125 495.289062 231.648438 C 495.347656 231.972656 495.304688 232.316406 495.304688 232.648438 Z M 495 217.550781 C 492.714844 214.195312 489.546875 212.28125 485.492188 211.882812 C 484.949219 211.832031 484.515625 212.183594 484.46875 212.695312 C 484.421875 213.203125 484.789062 213.621094 485.328125 213.683594 C 485.53125 213.707031 485.738281 213.734375 485.945312 213.761719 C 489.167969 214.238281 491.671875 215.863281 493.492188 218.542969 C 494.515625 220.054688 495.082031 221.742188 495.242188 223.566406 C 495.292969 224.132812 495.675781 224.480469 496.199219 224.460938 C 496.6875 224.441406 497.054688 224.03125 497.058594 223.511719 C 496.9375 221.910156 496.441406 219.664062 495 217.550781 Z M 484.46875 216.289062 C 484.417969 216.796875 484.75 217.1875 485.304688 217.289062 C 485.648438 217.351562 485.992188 217.402344 486.324219 217.503906 C 489.355469 218.429688 491.101562 220.488281 491.636719 223.601562 C 491.738281 224.1875 492.128906 224.515625 492.660156 224.457031 C 493.15625 224.398438 493.46875 223.980469 493.410156 223.394531 C 493.195312 221.390625 492.347656 219.667969 490.960938 218.222656 C 489.464844 216.667969 487.628906 215.753906 485.605469 215.511719 C 484.929688 215.488281 484.515625 215.804688 484.46875 216.289062 Z M 489.765625 223.363281 C 489.378906 221.320312 487.699219 219.613281 485.65625 219.1875 C 485.496094 219.15625 485.320312 219.132812 485.167969 219.167969 C 484.734375 219.257812 484.464844 219.609375 484.464844 220.03125 C 484.460938 220.488281 484.730469 220.820312 485.226562 220.941406 C 486.597656 221.269531 487.484375 222.117188 487.925781 223.449219 C 487.980469 223.605469 488.007812 223.773438 488.066406 223.925781 C 488.222656 224.308594 488.640625 224.527344 489.050781 224.453125 C 489.46875 224.378906 489.796875 223.992188 489.796875 223.535156 C 489.792969 223.5 489.78125 223.429688 489.765625 223.363281 Z M 631.824219 200.957031 C 631.839844 201.863281 631.835938 202.773438 631.339844 203.582031 C 630.640625 204.71875 629.636719 205.40625 628.289062 205.382812 C 620.589844 205.242188 614.777344 201.824219 610.871094 195.203125 C 609.441406 192.777344 608.652344 190.121094 608.449219 187.304688 C 608.390625 186.476562 608.3125 185.621094 608.464844 184.816406 C 608.792969 183.066406 610.164062 181.996094 611.957031 181.9375 C 612.554688 181.914062 613.152344 181.9375 613.75 181.925781 C 614.074219 181.921875 614.269531 182.0625 614.371094 182.371094 C 614.921875 184.03125 615.476562 185.691406 616.03125 187.351562 C 616.136719 187.667969 616.058594 187.90625 615.761719 188.09375 C 615.117188 188.507812 614.484375 188.9375 613.851562 189.363281 C 613.273438 189.753906 613.25 189.824219 613.511719 190.449219 C 614.507812 192.835938 615.992188 194.882812 617.863281 196.65625 C 619.46875 198.183594 621.28125 199.40625 623.335938 200.257812 C 623.917969 200.503906 624.007812 200.476562 624.359375 199.949219 C 624.800781 199.292969 625.25 198.636719 625.679688 197.972656 C 625.863281 197.6875 626.097656 197.625 626.394531 197.722656 C 628.082031 198.285156 629.769531 198.839844 631.445312 199.433594 C 631.613281 199.492188 631.769531 199.761719 631.808594 199.957031 C 631.867188 200.28125 631.824219 200.621094 631.824219 200.957031 Z M 631.519531 185.859375 C 629.234375 182.5 626.070312 180.589844 622.011719 180.191406 C 621.46875 180.136719 621.035156 180.492188 620.988281 181 C 620.941406 181.511719 621.308594 181.929688 621.847656 181.988281 C 622.054688 182.011719 622.257812 182.039062 622.464844 182.070312 C 625.6875 182.546875 628.191406 184.171875 630.011719 186.851562 C 631.035156 188.363281 631.601562 190.050781 631.765625 191.871094 C 631.8125 192.4375 632.199219 192.789062 632.71875 192.765625 C 633.207031 192.746094 633.574219 192.339844 633.578125 191.820312 C 633.457031 190.21875 632.960938 187.96875 631.519531 185.859375 Z M 620.988281 184.59375 C 620.9375 185.105469 621.269531 185.496094 621.824219 185.597656 C 622.167969 185.660156 622.511719 185.707031 622.84375 185.808594 C 625.875 186.738281 627.621094 188.796875 628.15625 191.90625 C 628.257812 192.496094 628.648438 192.824219 629.179688 192.761719 C 629.675781 192.707031 629.988281 192.289062 629.929688 191.703125 C 629.714844 189.695312 628.867188 187.976562 627.480469 186.53125 C 625.984375 184.972656 624.148438 184.0625 622.125 183.820312 C 621.449219 183.792969 621.035156 184.113281 620.988281 184.59375 Z M 626.289062 191.667969 C 625.898438 189.625 624.21875 187.917969 622.175781 187.496094 C 622.015625 187.460938 621.84375 187.441406 621.6875 187.472656 C 621.253906 187.566406 620.984375 187.914062 620.984375 188.335938 C 620.980469 188.792969 621.25 189.128906 621.746094 189.246094 C 623.117188 189.578125 624.007812 190.425781 624.445312 191.753906 C 624.5 191.914062 624.527344 192.078125 624.585938 192.234375 C 624.742188 192.617188 625.160156 192.835938 625.570312 192.761719 C 625.988281 192.683594 626.316406 192.296875 626.316406 191.839844 C 626.3125 191.804688 626.300781 191.738281 626.289062 191.667969 Z M 626.289062 191.667969 " fill-opacity="1" fill-rule="nonzero"/><path fill="#cf9dc8" d="M 583.675781 253.070312 C 583.800781 252.761719 583.785156 252.761719 584.128906 252.726562 C 584.636719 252.671875 585.125 252.617188 585.617188 252.5625 C 585.617188 251.761719 585.617188 250.964844 585.617188 250.167969 C 585.035156 250.113281 584.472656 250.039062 583.894531 249.984375 C 583.800781 249.984375 583.785156 249.929688 583.75 249.859375 C 583.640625 249.570312 583.511719 249.261719 583.402344 248.96875 C 583.367188 248.84375 583.238281 248.734375 583.257812 248.625 C 583.277344 248.515625 583.402344 248.425781 583.492188 248.316406 C 583.785156 247.953125 584.09375 247.574219 584.382812 247.210938 C 583.820312 246.628906 583.257812 246.066406 582.695312 245.503906 C 582.660156 245.542969 582.625 245.558594 582.585938 245.59375 C 582.171875 245.921875 581.753906 246.265625 581.335938 246.59375 C 581.300781 246.609375 581.207031 246.628906 581.171875 246.609375 C 580.773438 246.464844 580.394531 246.285156 580.011719 246.140625 C 579.9375 246.121094 579.902344 246.101562 579.902344 246.011719 C 579.886719 245.792969 579.847656 245.558594 579.832031 245.339844 C 579.792969 244.996094 579.757812 244.652344 579.722656 244.289062 C 578.921875 244.289062 578.125 244.289062 577.328125 244.289062 C 577.273438 244.871094 577.199219 245.449219 577.144531 246.03125 C 577.144531 246.105469 577.128906 246.140625 577.054688 246.15625 C 576.691406 246.285156 576.347656 246.429688 575.984375 246.59375 C 575.859375 246.648438 575.785156 246.683594 575.675781 246.558594 C 575.605469 246.484375 575.511719 246.429688 575.421875 246.359375 C 575.078125 246.085938 574.734375 245.8125 574.40625 245.542969 C 573.828125 246.121094 573.265625 246.683594 572.703125 247.246094 C 573.046875 247.683594 573.410156 248.136719 573.773438 248.570312 C 573.828125 248.644531 573.828125 248.699219 573.789062 248.769531 C 573.644531 249.042969 573.535156 249.332031 573.410156 249.605469 C 573.355469 249.75 573.335938 249.929688 573.246094 250.003906 C 573.136719 250.078125 572.957031 250.039062 572.808594 250.058594 C 572.355469 250.113281 571.902344 250.148438 571.449219 250.203125 C 571.449219 251 571.449219 251.800781 571.449219 252.597656 C 571.503906 252.597656 571.539062 252.617188 571.59375 252.617188 C 572.121094 252.6875 572.664062 252.742188 573.191406 252.796875 C 573.226562 252.796875 573.28125 252.851562 573.300781 252.886719 C 573.480469 253.269531 573.625 253.648438 573.789062 254.046875 C 573.808594 254.101562 573.808594 254.175781 573.773438 254.210938 C 573.554688 254.5 573.335938 254.773438 573.117188 255.046875 C 572.972656 255.226562 572.828125 255.410156 572.703125 255.570312 C 573.28125 256.152344 573.84375 256.714844 574.40625 257.277344 C 574.84375 256.933594 575.296875 256.570312 575.730469 256.207031 C 575.804688 256.132812 575.859375 256.152344 575.929688 256.1875 C 576.292969 256.335938 576.65625 256.496094 577.035156 256.644531 C 577.128906 256.679688 577.164062 256.695312 577.164062 256.789062 C 577.21875 257.367188 577.273438 257.929688 577.34375 258.527344 C 578.144531 258.527344 578.941406 258.527344 579.703125 258.457031 C 579.703125 258.421875 579.722656 258.367188 579.722656 258.328125 C 579.777344 257.804688 579.828125 257.257812 579.882812 256.714844 C 579.902344 256.640625 579.921875 256.605469 579.992188 256.585938 C 580.375 256.441406 580.753906 256.28125 581.152344 256.117188 C 581.191406 256.097656 581.261719 256.117188 581.300781 256.132812 C 581.40625 256.207031 581.515625 256.296875 581.625 256.386719 C 581.988281 256.679688 582.332031 256.96875 582.660156 257.222656 C 583.238281 256.640625 583.800781 256.078125 584.363281 255.515625 C 584.019531 255.082031 583.65625 254.648438 583.292969 254.195312 C 583.238281 254.121094 583.238281 254.066406 583.277344 253.992188 C 583.402344 253.6875 583.546875 253.378906 583.675781 253.070312 Z M 578.433594 254.957031 C 576.582031 254.902344 574.96875 253.359375 575.003906 251.347656 C 575.042969 249.460938 576.621094 247.84375 578.613281 247.882812 C 580.519531 247.917969 582.097656 249.496094 582.078125 251.4375 C 582.078125 253.378906 580.464844 255.011719 578.433594 254.957031 Z M 477 267.308594 C 477.125 267 477.105469 267 477.453125 266.964844 C 477.960938 266.910156 478.449219 266.855469 478.9375 266.800781 C 478.9375 266.003906 478.9375 265.203125 478.9375 264.40625 C 478.359375 264.351562 477.796875 264.277344 477.214844 264.226562 C 477.125 264.226562 477.105469 264.171875 477.070312 264.097656 C 476.960938 263.808594 476.835938 263.5 476.726562 263.207031 C 476.691406 263.082031 476.5625 262.972656 476.582031 262.863281 C 476.597656 262.753906 476.726562 262.664062 476.816406 262.554688 C 477.105469 262.191406 477.414062 261.8125 477.707031 261.449219 C 477.144531 260.867188 476.582031 260.304688 476.019531 259.742188 C 475.984375 259.78125 475.945312 259.796875 475.910156 259.835938 C 475.492188 260.160156 475.078125 260.503906 474.660156 260.832031 C 474.621094 260.851562 474.53125 260.867188 474.496094 260.851562 C 474.097656 260.703125 473.714844 260.523438 473.335938 260.378906 C 473.261719 260.359375 473.226562 260.34375 473.226562 260.25 C 473.207031 260.035156 473.171875 259.796875 473.152344 259.582031 C 473.117188 259.234375 473.082031 258.890625 473.042969 258.527344 C 472.246094 258.527344 471.449219 258.527344 470.648438 258.527344 C 470.597656 259.109375 470.523438 259.6875 470.46875 260.269531 C 470.46875 260.34375 470.449219 260.378906 470.378906 260.398438 C 470.015625 260.523438 469.671875 260.667969 469.308594 260.832031 C 469.179688 260.886719 469.109375 260.921875 469 260.796875 C 468.925781 260.722656 468.835938 260.667969 468.746094 260.597656 C 468.402344 260.324219 468.054688 260.050781 467.730469 259.78125 C 467.148438 260.359375 466.585938 260.921875 466.023438 261.484375 C 466.371094 261.921875 466.730469 262.375 467.09375 262.808594 C 467.148438 262.882812 467.148438 262.9375 467.113281 263.007812 C 466.96875 263.28125 466.859375 263.570312 466.730469 263.84375 C 466.679688 263.988281 466.660156 264.167969 466.570312 264.242188 C 466.460938 264.316406 466.277344 264.277344 466.132812 264.296875 C 465.679688 264.351562 465.226562 264.386719 464.773438 264.441406 C 464.773438 265.238281 464.773438 266.039062 464.773438 266.835938 C 464.828125 266.835938 464.863281 266.855469 464.917969 266.855469 C 465.445312 266.925781 465.988281 266.980469 466.515625 267.035156 C 466.550781 267.035156 466.605469 267.089844 466.621094 267.125 C 466.804688 267.507812 466.949219 267.886719 467.113281 268.289062 C 467.128906 268.339844 467.128906 268.414062 467.09375 268.449219 C 466.875 268.742188 466.660156 269.011719 466.441406 269.285156 C 466.296875 269.464844 466.152344 269.648438 466.023438 269.8125 C 466.605469 270.390625 467.167969 270.953125 467.730469 271.515625 C 468.164062 271.171875 468.617188 270.808594 469.054688 270.445312 C 469.125 270.375 469.179688 270.390625 469.253906 270.429688 C 469.617188 270.574219 469.980469 270.738281 470.359375 270.882812 C 470.449219 270.917969 470.488281 270.9375 470.488281 271.027344 C 470.542969 271.605469 470.59375 272.167969 470.667969 272.769531 C 471.464844 272.769531 472.265625 272.769531 473.027344 272.695312 C 473.027344 272.660156 473.042969 272.605469 473.042969 272.566406 C 473.097656 272.042969 473.152344 271.496094 473.207031 270.953125 C 473.226562 270.882812 473.242188 270.84375 473.316406 270.828125 C 473.695312 270.683594 474.078125 270.519531 474.476562 270.355469 C 474.511719 270.335938 474.585938 270.355469 474.621094 270.375 C 474.730469 270.445312 474.839844 270.535156 474.949219 270.628906 C 475.3125 270.917969 475.65625 271.207031 475.980469 271.460938 C 476.5625 270.882812 477.125 270.320312 477.6875 269.757812 C 477.34375 269.320312 476.980469 268.886719 476.617188 268.433594 C 476.5625 268.359375 476.5625 268.304688 476.597656 268.234375 C 476.726562 267.925781 476.871094 267.617188 477 267.308594 Z M 471.757812 269.195312 C 469.90625 269.140625 468.292969 267.597656 468.328125 265.585938 C 468.363281 263.699219 469.941406 262.085938 471.9375 262.121094 C 473.84375 262.15625 475.421875 263.734375 475.402344 265.675781 C 475.402344 267.617188 473.789062 269.25 471.757812 269.195312 Z M 525.835938 245.261719 C 525.964844 244.953125 525.945312 244.953125 526.289062 244.917969 C 526.796875 244.863281 527.289062 244.808594 527.777344 244.753906 C 527.777344 243.957031 527.777344 243.15625 527.777344 242.359375 C 527.195312 242.304688 526.632812 242.230469 526.054688 242.175781 C 525.964844 242.175781 525.945312 242.125 525.910156 242.050781 C 525.800781 241.761719 525.671875 241.453125 525.5625 241.160156 C 525.527344 241.035156 525.402344 240.925781 525.417969 240.816406 C 525.4375 240.707031 525.5625 240.617188 525.65625 240.507812 C 525.945312 240.144531 526.253906 239.765625 526.542969 239.402344 C 525.980469 238.820312 525.417969 238.257812 524.855469 237.695312 C 524.820312 237.734375 524.785156 237.75 524.75 237.789062 C 524.332031 238.113281 523.914062 238.457031 523.496094 238.785156 C 523.460938 238.804688 523.371094 238.820312 523.332031 238.804688 C 522.933594 238.65625 522.554688 238.476562 522.171875 238.332031 C 522.097656 238.3125 522.0625 238.296875 522.0625 238.203125 C 522.046875 237.988281 522.007812 237.75 521.992188 237.535156 C 521.953125 237.1875 521.917969 236.84375 521.882812 236.480469 C 521.085938 236.480469 520.285156 236.480469 519.488281 236.480469 C 519.433594 237.0625 519.359375 237.640625 519.308594 238.222656 C 519.308594 238.296875 519.289062 238.332031 519.214844 238.351562 C 518.851562 238.476562 518.507812 238.621094 518.144531 238.785156 C 518.019531 238.839844 517.945312 238.875 517.835938 238.75 C 517.765625 238.675781 517.675781 238.621094 517.582031 238.550781 C 517.238281 238.277344 516.894531 238.003906 516.566406 237.734375 C 515.988281 238.3125 515.425781 238.875 514.863281 239.4375 C 515.207031 239.875 515.570312 240.328125 515.933594 240.761719 C 515.988281 240.835938 515.988281 240.890625 515.949219 240.960938 C 515.804688 241.234375 515.695312 241.523438 515.570312 241.796875 C 515.515625 241.941406 515.496094 242.121094 515.40625 242.195312 C 515.296875 242.269531 515.117188 242.230469 514.972656 242.25 C 514.519531 242.304688 514.0625 242.339844 513.609375 242.394531 C 513.609375 243.191406 513.609375 243.992188 513.609375 244.789062 C 513.664062 244.789062 513.703125 244.808594 513.757812 244.808594 C 514.28125 244.878906 514.828125 244.933594 515.351562 244.988281 C 515.386719 244.988281 515.441406 245.042969 515.460938 245.078125 C 515.640625 245.460938 515.785156 245.839844 515.949219 246.242188 C 515.96875 246.292969 515.96875 246.367188 515.933594 246.402344 C 515.714844 246.695312 515.496094 246.964844 515.28125 247.238281 C 515.132812 247.417969 514.988281 247.601562 514.863281 247.765625 C 515.441406 248.34375 516.003906 248.90625 516.566406 249.46875 C 517.003906 249.125 517.457031 248.761719 517.890625 248.398438 C 517.964844 248.328125 518.019531 248.34375 518.089844 248.382812 C 518.453125 248.527344 518.816406 248.691406 519.195312 248.835938 C 519.289062 248.871094 519.324219 248.890625 519.324219 248.980469 C 519.378906 249.558594 519.433594 250.121094 519.503906 250.722656 C 520.304688 250.722656 521.101562 250.722656 521.863281 250.648438 C 521.863281 250.613281 521.882812 250.558594 521.882812 250.519531 C 521.9375 249.996094 521.988281 249.449219 522.042969 248.90625 C 522.0625 248.835938 522.082031 248.796875 522.152344 248.78125 C 522.535156 248.636719 522.914062 248.472656 523.3125 248.308594 C 523.351562 248.289062 523.421875 248.308594 523.460938 248.328125 C 523.566406 248.398438 523.675781 248.488281 523.785156 248.582031 C 524.148438 248.871094 524.492188 249.160156 524.820312 249.414062 C 525.398438 248.835938 525.960938 248.273438 526.523438 247.710938 C 526.179688 247.273438 525.816406 246.839844 525.453125 246.386719 C 525.398438 246.3125 525.398438 246.257812 525.4375 246.1875 C 525.5625 245.878906 525.710938 245.570312 525.835938 245.261719 Z M 520.59375 247.148438 C 518.746094 247.09375 517.128906 245.550781 517.167969 243.539062 C 517.203125 241.652344 518.78125 240.039062 520.777344 240.074219 C 522.679688 240.109375 524.257812 241.6875 524.238281 243.628906 C 524.238281 245.570312 522.625 247.203125 520.59375 247.148438 Z M 657.292969 219 C 657.417969 218.691406 657.398438 218.691406 657.746094 218.65625 C 658.253906 218.601562 658.742188 218.546875 659.230469 218.492188 C 659.230469 217.695312 659.230469 216.894531 659.230469 216.097656 C 658.652344 216.042969 658.089844 215.96875 657.507812 215.914062 C 657.417969 215.914062 657.402344 215.863281 657.363281 215.789062 C 657.253906 215.5 657.128906 215.191406 657.019531 214.898438 C 656.984375 214.773438 656.855469 214.664062 656.875 214.554688 C 656.890625 214.445312 657.019531 214.355469 657.109375 214.246094 C 657.398438 213.882812 657.707031 213.503906 658 213.140625 C 657.4375 212.558594 656.875 211.996094 656.3125 211.433594 C 656.277344 211.472656 656.238281 211.488281 656.203125 211.527344 C 655.785156 211.851562 655.371094 212.195312 654.953125 212.523438 C 654.914062 212.542969 654.824219 212.558594 654.789062 212.542969 C 654.390625 212.394531 654.007812 212.214844 653.628906 212.070312 C 653.554688 212.050781 653.519531 212.035156 653.519531 211.941406 C 653.5 211.726562 653.464844 211.488281 653.445312 211.273438 C 653.410156 210.925781 653.375 210.582031 653.335938 210.21875 C 652.539062 210.21875 651.742188 210.21875 650.945312 210.21875 C 650.890625 210.800781 650.816406 211.378906 650.761719 211.960938 C 650.761719 212.035156 650.742188 212.070312 650.671875 212.089844 C 650.308594 212.214844 649.964844 212.359375 649.601562 212.523438 C 649.472656 212.578125 649.402344 212.613281 649.292969 212.488281 C 649.21875 212.414062 649.128906 212.359375 649.039062 212.289062 C 648.695312 212.015625 648.347656 211.742188 648.023438 211.472656 C 647.441406 212.050781 646.878906 212.613281 646.316406 213.175781 C 646.664062 213.613281 647.027344 214.066406 647.386719 214.5 C 647.441406 214.574219 647.441406 214.628906 647.40625 214.699219 C 647.261719 214.972656 647.152344 215.261719 647.027344 215.535156 C 646.972656 215.679688 646.953125 215.859375 646.863281 215.933594 C 646.753906 216.007812 646.570312 215.96875 646.425781 215.988281 C 645.972656 216.042969 645.519531 216.078125 645.066406 216.132812 C 645.066406 216.929688 645.066406 217.730469 645.066406 218.527344 C 645.121094 218.527344 645.15625 218.546875 645.210938 218.546875 C 645.738281 218.617188 646.28125 218.671875 646.808594 218.726562 C 646.84375 218.726562 646.898438 218.78125 646.914062 218.816406 C 647.097656 219.199219 647.242188 219.578125 647.40625 219.980469 C 647.421875 220.03125 647.421875 220.105469 647.386719 220.140625 C 647.171875 220.433594 646.953125 220.703125 646.734375 220.976562 C 646.589844 221.15625 646.445312 221.339844 646.316406 221.503906 C 646.898438 222.082031 647.460938 222.644531 648.023438 223.207031 C 648.457031 222.863281 648.910156 222.5 649.347656 222.136719 C 649.417969 222.066406 649.472656 222.082031 649.546875 222.121094 C 649.910156 222.265625 650.273438 222.429688 650.652344 222.574219 C 650.742188 222.609375 650.78125 222.628906 650.78125 222.71875 C 650.835938 223.296875 650.886719 223.859375 650.960938 224.460938 C 651.757812 224.460938 652.558594 224.460938 653.320312 224.386719 C 653.320312 224.351562 653.335938 224.296875 653.335938 224.261719 C 653.390625 223.734375 653.445312 223.1875 653.5 222.644531 C 653.519531 222.574219 653.535156 222.535156 653.609375 222.519531 C 653.988281 222.375 654.371094 222.210938 654.769531 222.046875 C 654.804688 222.027344 654.878906 222.046875 654.914062 222.066406 C 655.023438 222.136719 655.132812 222.226562 655.242188 222.320312 C 655.605469 222.609375 655.949219 222.898438 656.277344 223.152344 C 656.855469 222.574219 657.417969 222.011719 657.980469 221.449219 C 657.636719 221.011719 657.273438 220.578125 656.910156 220.125 C 656.855469 220.050781 656.855469 219.996094 656.890625 219.925781 C 657.019531 219.617188 657.164062 219.308594 657.292969 219 Z M 652.050781 220.886719 C 650.199219 220.832031 648.585938 219.289062 648.621094 217.277344 C 648.65625 215.390625 650.234375 213.777344 652.230469 213.8125 C 654.136719 213.847656 655.714844 215.425781 655.695312 217.367188 C 655.695312 219.308594 654.082031 220.941406 652.050781 220.886719 Z M 598.667969 219.007812 C 598.792969 218.703125 598.777344 218.703125 599.121094 218.664062 C 599.628906 218.609375 600.117188 218.554688 600.609375 218.5 C 600.609375 217.703125 600.609375 216.90625 600.609375 216.105469 C 600.027344 216.050781 599.464844 215.980469 598.882812 215.925781 C 598.792969 215.925781 598.777344 215.871094 598.738281 215.796875 C 598.632812 215.507812 598.503906 215.199219 598.394531 214.910156 C 598.359375 214.78125 598.230469 214.675781 598.25 214.566406 C 598.269531 214.457031 598.394531 214.367188 598.484375 214.257812 C 598.777344 213.894531 599.082031 213.511719 599.375 213.148438 C 598.8125 212.570312 598.25 212.007812 597.6875 211.445312 C 597.652344 211.480469 597.613281 211.5 597.578125 211.535156 C 597.160156 211.863281 596.746094 212.207031 596.328125 212.53125 C 596.292969 212.550781 596.199219 212.570312 596.164062 212.550781 C 595.765625 212.40625 595.382812 212.226562 595.003906 212.078125 C 594.929688 212.0625 594.894531 212.042969 594.894531 211.953125 C 594.875 211.734375 594.839844 211.5 594.820312 211.28125 C 594.785156 210.9375 594.75 210.59375 594.714844 210.230469 C 593.914062 210.230469 593.117188 210.230469 592.320312 210.230469 C 592.265625 210.808594 592.191406 211.390625 592.136719 211.972656 C 592.136719 212.042969 592.121094 212.078125 592.046875 212.097656 C 591.683594 212.226562 591.339844 212.371094 590.976562 212.535156 C 590.847656 212.589844 590.777344 212.625 590.667969 212.496094 C 590.59375 212.425781 590.503906 212.371094 590.414062 212.296875 C 590.070312 212.027344 589.726562 211.753906 589.398438 211.480469 C 588.816406 212.0625 588.253906 212.625 587.691406 213.1875 C 588.039062 213.621094 588.402344 214.074219 588.761719 214.511719 C 588.816406 214.582031 588.816406 214.636719 588.78125 214.710938 C 588.636719 214.980469 588.527344 215.273438 588.402344 215.542969 C 588.347656 215.691406 588.328125 215.871094 588.238281 215.945312 C 588.128906 216.015625 587.949219 215.980469 587.800781 215.996094 C 587.347656 216.050781 586.894531 216.089844 586.441406 216.144531 C 586.441406 216.941406 586.441406 217.738281 586.441406 218.539062 C 586.496094 218.539062 586.53125 218.554688 586.585938 218.554688 C 587.113281 218.628906 587.65625 218.683594 588.183594 218.738281 C 588.21875 218.738281 588.273438 218.792969 588.292969 218.828125 C 588.472656 219.207031 588.617188 219.589844 588.78125 219.988281 C 588.800781 220.042969 588.800781 220.117188 588.761719 220.152344 C 588.546875 220.441406 588.328125 220.714844 588.109375 220.984375 C 587.964844 221.167969 587.820312 221.347656 587.691406 221.511719 C 588.273438 222.09375 588.835938 222.65625 589.398438 223.21875 C 589.832031 222.871094 590.289062 222.511719 590.722656 222.148438 C 590.796875 222.074219 590.847656 222.09375 590.921875 222.128906 C 591.285156 222.273438 591.648438 222.4375 592.027344 222.582031 C 592.117188 222.617188 592.15625 222.636719 592.15625 222.726562 C 592.210938 223.308594 592.265625 223.871094 592.335938 224.46875 C 593.136719 224.46875 593.933594 224.46875 594.695312 224.398438 C 594.695312 224.359375 594.710938 224.304688 594.710938 224.269531 C 594.765625 223.742188 594.820312 223.199219 594.875 222.65625 C 594.894531 222.582031 594.914062 222.546875 594.984375 222.527344 C 595.367188 222.382812 595.746094 222.21875 596.144531 222.054688 C 596.183594 222.039062 596.253906 222.054688 596.289062 222.074219 C 596.398438 222.148438 596.507812 222.238281 596.617188 222.328125 C 596.980469 222.617188 597.324219 222.910156 597.652344 223.164062 C 598.230469 222.582031 598.792969 222.019531 599.355469 221.457031 C 599.011719 221.023438 598.648438 220.585938 598.285156 220.132812 C 598.230469 220.0625 598.230469 220.007812 598.269531 219.933594 C 598.394531 219.625 598.539062 219.316406 598.667969 219.007812 Z M 593.425781 220.894531 C 591.574219 220.84375 589.960938 219.300781 589.996094 217.285156 C 590.03125 215.398438 591.609375 213.785156 593.605469 213.820312 C 595.511719 213.859375 597.089844 215.4375 597.070312 217.378906 C 597.070312 219.316406 595.457031 220.949219 593.425781 220.894531 Z M 593.425781 220.894531 " fill-opacity="1" fill-rule="nonzero"/></svg>