<svg xmlns="http://www.w3.org/2000/svg" xmlns:xlink="http://www.w3.org/1999/xlink" width="1366" zoomAndPan="magnify" viewBox="0 0 1024.5 576" height="768" preserveAspectRatio="xMidYMid meet" version="1.0"><defs><clipPath id="e3465059a5"><path d="M 343 86.539062 L 683 86.539062 L 683 490.039062 L 343 490.039062 Z M 343 86.539062 " clip-rule="nonzero"/></clipPath></defs><g clip-path="url(#e3465059a5)"><path fill="#0088cc" d="M 664.773438 464.523438 C 658.53125 473.347656 648.355469 478.621094 637.554688 478.621094 C 623.519531 478.621094 610.933594 469.746094 606.179688 456.527344 L 595.699219 429.015625 L 595.699219 445.230469 C 595.699219 463.640625 580.746094 478.621094 562.363281 478.621094 C 543.984375 478.621094 529.03125 463.640625 529.03125 445.230469 L 529.03125 379.636719 L 506.753906 379.640625 L 506.753906 467.433594 C 506.753906 473.589844 501.773438 478.589844 495.621094 478.589844 C 489.46875 478.589844 484.484375 473.589844 484.484375 467.433594 L 484.484375 379.640625 L 435.328125 379.640625 L 435.328125 467.433594 C 435.328125 473.589844 430.339844 478.589844 424.1875 478.589844 C 418.039062 478.589844 413.050781 473.589844 413.050781 467.433594 L 413.050781 369.511719 L 385.820312 221.898438 L 368.847656 206.617188 C 356.625 195.5625 351.808594 178.855469 356.277344 163.003906 C 360.734375 147.152344 373.546875 135.425781 389.710938 132.402344 L 447.453125 121.585938 C 454.820312 112.652344 465.230469 106.15625 477.457031 103.863281 C 489.375 101.628906 501.421875 103.644531 511.867188 109.519531 L 569.574219 98.707031 C 585.738281 95.683594 601.910156 101.980469 611.789062 115.140625 C 621.671875 128.308594 623.210938 145.628906 615.8125 160.34375 L 568.273438 254.363281 L 579.25 312.757812 L 588.90625 312.734375 C 609.800781 312.734375 628.507812 325.945312 635.53125 345.625 L 668.925781 433.882812 C 668.957031 433.964844 668.980469 434.050781 669.011719 434.132812 C 672.597656 444.335938 671.011719 455.691406 664.773438 464.523438 Z M 679.585938 429.839844 L 646.269531 341.785156 C 637.636719 317.574219 614.582031 301.320312 588.882812 301.320312 L 588.695312 301.320312 L 580.195312 256.058594 L 626 165.476562 C 635.363281 146.855469 633.410156 124.9375 620.90625 108.277344 C 610.527344 94.460938 594.746094 86.539062 577.582031 86.539062 C 574.210938 86.539062 570.808594 86.855469 567.46875 87.480469 L 513.609375 97.578125 C 505.289062 93.628906 496.164062 91.558594 486.964844 91.558594 C 483.097656 91.558594 479.195312 91.917969 475.355469 92.640625 C 462.414062 95.066406 450.554688 101.558594 441.519531 111.082031 L 387.617188 121.175781 C 367.15625 125.007812 350.941406 139.847656 345.296875 159.902344 C 339.648438 179.96875 345.742188 201.117188 361.222656 215.105469 L 375.3125 227.789062 L 401.644531 370.558594 L 401.644531 467.433594 C 401.644531 479.878906 411.757812 490.003906 424.1875 490.003906 C 436.617188 490.003906 446.730469 479.878906 446.730469 467.433594 L 446.730469 391.0625 L 473.078125 391.0625 L 473.078125 467.433594 C 473.078125 479.878906 483.191406 490.003906 495.621094 490.003906 C 508.046875 490.003906 518.160156 479.878906 518.160156 467.433594 L 518.160156 452.117188 C 521.476562 473.566406 540.035156 490.039062 562.359375 490.039062 C 578.109375 490.039062 591.976562 481.855469 599.957031 469.507812 C 608.078125 482.082031 622.191406 490.039062 637.558594 490.039062 C 652.050781 490.039062 665.703125 482.96875 674.078125 471.121094 C 682.445312 459.28125 684.574219 444.042969 679.585938 429.839844 " fill-opacity="1" fill-rule="nonzero"/></g><path fill="#0088cc" d="M 492.207031 182.773438 C 507.886719 179.828125 518.25 164.660156 515.316406 148.953125 C 512.800781 133.585938 496.714844 122.59375 481.554688 125.789062 C 465.867188 128.726562 455.496094 143.898438 458.425781 159.613281 C 460.96875 174.988281 476.96875 185.964844 492.207031 182.773438 " fill-opacity="1" fill-rule="nonzero"/><path fill="#0088cc" d="M 537.433594 162.414062 L 551.585938 149.21875 C 556.085938 145.023438 563.132812 145.269531 567.328125 149.78125 C 571.519531 154.289062 571.265625 161.34375 566.769531 165.542969 L 543.859375 186.898438 C 552.421875 193.21875 558.570312 202.652344 560.597656 213.515625 L 561.511719 218.363281 L 595.929688 150.289062 C 599.535156 143.117188 598.8125 134.976562 593.984375 128.542969 C 589.160156 122.113281 581.5625 119.15625 573.667969 120.632812 L 531.21875 128.589844 C 534.085938 133.5625 536.128906 139.042969 537.214844 144.859375 C 538.328125 150.820312 538.347656 156.742188 537.433594 162.414062 " fill-opacity="1" fill-rule="nonzero"/><path fill="#0088cc" d="M 614.660156 353.425781 C 614.628906 353.347656 614.605469 353.273438 614.578125 353.195312 C 610.734375 342.335938 600.429688 335.042969 588.929688 335.042969 L 481.101562 335.308594 C 485.71875 348.132812 497.996094 357.332031 512.359375 357.332031 L 584.554688 357.332031 C 589.085938 357.292969 593.382812 360.261719 594.964844 364.507812 L 627.03125 448.683594 C 627.066406 448.765625 627.089844 448.847656 627.121094 448.929688 C 628.6875 453.347656 632.878906 456.3125 637.554688 456.3125 C 641.195312 456.3125 644.492188 454.605469 646.59375 451.632812 C 648.675781 448.683594 649.199219 445.054688 648.035156 441.640625 L 614.660156 353.425781 " fill-opacity="1" fill-rule="nonzero"/><path fill="#0088cc" d="M 551.300781 445.230469 C 551.300781 451.34375 556.265625 456.3125 562.363281 456.3125 C 568.464844 456.3125 573.421875 451.34375 573.421875 445.230469 L 573.421875 379.636719 L 551.300781 379.636719 L 551.300781 445.230469 " fill-opacity="1" fill-rule="nonzero"/><path fill="#0088cc" d="M 440.226562 236.066406 C 438.175781 225.09375 440.523438 214.3125 446.011719 205.527344 L 416.441406 193.695312 C 410.730469 191.410156 407.949219 184.925781 410.234375 179.199219 C 412.511719 173.480469 418.988281 170.699219 424.703125 172.984375 L 442.617188 180.148438 C 439.699219 175.128906 437.632812 169.589844 436.53125 163.714844 C 435.433594 157.816406 435.402344 151.976562 436.28125 146.367188 L 393.804688 154.324219 C 385.90625 155.804688 379.894531 161.3125 377.710938 169.054688 C 375.53125 176.804688 377.792969 184.652344 383.757812 190.046875 L 441.308594 241.871094 L 440.226562 236.066406 " fill-opacity="1" fill-rule="nonzero"/><path fill="#0088cc" d="M 538.707031 217.625 C 536.820312 206.707031 525.675781 199.015625 514.828125 201.230469 L 478.476562 208.039062 C 467.382812 210.117188 460.042969 220.847656 462.117188 231.964844 L 477.253906 313.011719 L 556.589844 312.816406 L 538.707031 217.625 " fill-opacity="1" fill-rule="nonzero"/><path fill="#0088cc" d="M 448.042969 277.933594 L 412.984375 246.359375 L 433.453125 357.335938 L 467.957031 357.335938 C 461.25 348.382812 457.1875 337.347656 456.90625 325.394531 L 448.042969 277.933594 " fill-opacity="1" fill-rule="nonzero"/></svg>