<svg xmlns="http://www.w3.org/2000/svg" xmlns:xlink="http://www.w3.org/1999/xlink" width="1366" zoomAndPan="magnify" viewBox="0 0 1024.5 576" height="768" preserveAspectRatio="xMidYMid meet" version="1.0"><defs><clipPath id="60e216b765"><path d="M 397.050781 172.941406 L 627.300781 172.941406 L 627.300781 403.191406 L 397.050781 403.191406 Z M 397.050781 172.941406 " clip-rule="nonzero"/></clipPath><clipPath id="626726af7e"><path d="M 434 201 L 627.300781 201 L 627.300781 403.191406 L 434 403.191406 Z M 434 201 " clip-rule="nonzero"/></clipPath></defs><g clip-path="url(#60e216b765)"><path fill="#0088cc" d="M 627.296875 288.070312 C 627.296875 351.652344 575.757812 403.195312 512.175781 403.195312 C 448.59375 403.195312 397.050781 351.652344 397.050781 288.070312 C 397.050781 224.488281 448.59375 172.945312 512.175781 172.945312 C 575.757812 172.945312 627.296875 224.488281 627.296875 288.070312 " fill-opacity="1" fill-rule="nonzero"/></g><g clip-path="url(#626726af7e)"><path fill="#187eb2" d="M 509.65625 201.109375 C 487.242188 201.109375 469.078125 219.273438 469.078125 241.6875 C 469.078125 245.59375 470.902344 256.496094 474.839844 262.53125 C 474.839844 262.53125 489.644531 276.074219 509.617188 293.90625 C 492.09375 294.039062 473.039062 294.117188 458.554688 303.640625 C 448.253906 310.417969 440.480469 322.363281 438.085938 334.457031 C 436.191406 344.019531 428.628906 355.796875 443.761719 363.144531 C 449.949219 366.144531 470.871094 383.050781 494.867188 401.894531 C 500.515625 402.742188 506.289062 403.195312 512.171875 403.195312 C 573.269531 403.195312 623.222656 355.589844 627.03125 295.453125 C 583.496094 253.492188 528.53125 205.757812 528.53125 205.757812 C 522.878906 202.582031 513.078125 201.109375 509.652344 201.109375 Z M 509.65625 201.109375 " fill-opacity="0.1961" fill-rule="nonzero"/></g><path fill="#ffffff" d="M 550.238281 241.542969 C 550.238281 242.871094 550.171875 244.195312 550.042969 245.519531 C 549.910156 246.839844 549.714844 248.15625 549.457031 249.457031 C 549.199219 250.761719 548.875 252.050781 548.488281 253.320312 C 548.105469 254.59375 547.65625 255.84375 547.148438 257.070312 C 546.640625 258.296875 546.070312 259.5 545.445312 260.671875 C 544.820312 261.84375 544.136719 262.980469 543.398438 264.085938 C 542.660156 265.191406 541.867188 266.257812 541.027344 267.285156 C 540.183594 268.3125 539.292969 269.296875 538.351562 270.238281 C 537.410156 271.175781 536.429688 272.066406 535.402344 272.910156 C 534.371094 273.753906 533.308594 274.542969 532.203125 275.285156 C 531.097656 276.023438 529.957031 276.703125 528.785156 277.332031 C 527.613281 277.957031 526.414062 278.523438 525.1875 279.03125 C 523.957031 279.542969 522.707031 279.988281 521.4375 280.375 C 520.164062 280.761719 518.875 281.082031 517.574219 281.34375 C 516.269531 281.601562 514.957031 281.796875 513.632812 281.925781 C 512.3125 282.058594 510.984375 282.121094 509.65625 282.121094 C 508.328125 282.121094 507 282.058594 505.679688 281.925781 C 504.355469 281.796875 503.042969 281.601562 501.738281 281.34375 C 500.433594 281.082031 499.148438 280.761719 497.875 280.375 C 496.605469 279.988281 495.355469 279.542969 494.125 279.03125 C 492.898438 278.523438 491.699219 277.957031 490.527344 277.332031 C 489.355469 276.703125 488.214844 276.023438 487.109375 275.285156 C 486.003906 274.542969 484.9375 273.753906 483.910156 272.910156 C 482.882812 272.066406 481.902344 271.175781 480.960938 270.238281 C 480.019531 269.296875 479.128906 268.3125 478.285156 267.285156 C 477.441406 266.257812 476.652344 265.191406 475.914062 264.085938 C 475.175781 262.980469 474.492188 261.84375 473.867188 260.671875 C 473.238281 259.5 472.671875 258.296875 472.164062 257.070312 C 471.65625 255.84375 471.207031 254.59375 470.820312 253.320312 C 470.4375 252.050781 470.113281 250.761719 469.855469 249.457031 C 469.59375 248.15625 469.398438 246.839844 469.269531 245.519531 C 469.140625 244.195312 469.074219 242.871094 469.074219 241.542969 C 469.074219 240.210938 469.140625 238.886719 469.269531 237.5625 C 469.398438 236.242188 469.59375 234.925781 469.855469 233.625 C 470.113281 232.320312 470.4375 231.03125 470.820312 229.761719 C 471.207031 228.488281 471.65625 227.238281 472.164062 226.011719 C 472.671875 224.78125 473.238281 223.582031 473.867188 222.410156 C 474.492188 221.238281 475.175781 220.101562 475.914062 218.996094 C 476.652344 217.890625 477.441406 216.824219 478.285156 215.796875 C 479.128906 214.769531 480.019531 213.785156 480.960938 212.84375 C 481.902344 211.90625 482.882812 211.015625 483.910156 210.171875 C 484.9375 209.328125 486.003906 208.535156 487.109375 207.796875 C 488.214844 207.058594 489.355469 206.378906 490.527344 205.75 C 491.699219 205.125 492.898438 204.558594 494.125 204.046875 C 495.355469 203.539062 496.605469 203.09375 497.875 202.707031 C 499.148438 202.320312 500.433594 202 501.738281 201.738281 C 503.042969 201.480469 504.355469 201.285156 505.679688 201.15625 C 507 201.023438 508.328125 200.960938 509.65625 200.960938 C 510.984375 200.960938 512.3125 201.023438 513.632812 201.15625 C 514.957031 201.285156 516.269531 201.480469 517.574219 201.738281 C 518.875 202 520.164062 202.320312 521.4375 202.707031 C 522.707031 203.09375 523.957031 203.539062 525.1875 204.046875 C 526.414062 204.558594 527.613281 205.125 528.785156 205.75 C 529.957031 206.378906 531.097656 207.058594 532.203125 207.796875 C 533.308594 208.535156 534.371094 209.328125 535.402344 210.171875 C 536.429688 211.015625 537.410156 211.90625 538.351562 212.84375 C 539.292969 213.785156 540.183594 214.769531 541.027344 215.796875 C 541.867188 216.824219 542.660156 217.890625 543.398438 218.996094 C 544.136719 220.101562 544.820312 221.238281 545.445312 222.410156 C 546.070312 223.582031 546.640625 224.78125 547.148438 226.011719 C 547.65625 227.238281 548.105469 228.488281 548.488281 229.761719 C 548.875 231.03125 549.199219 232.320312 549.457031 233.625 C 549.714844 234.925781 549.910156 236.242188 550.042969 237.5625 C 550.171875 238.886719 550.238281 240.210938 550.238281 241.542969 Z M 550.238281 241.542969 " fill-opacity="1" fill-rule="nonzero"/><path fill="#ffffff" d="M 587.027344 334.121094 C 588.5625 343.789062 595.1875 355.355469 580.378906 362.730469 C 565.570312 370.101562 535.769531 374.703125 512.554688 374.703125 C 489.339844 374.703125 458.894531 370.160156 443.757812 362.8125 C 428.628906 355.46875 436.1875 343.683594 438.085938 334.121094 C 440.480469 322.027344 448.253906 310.089844 458.554688 303.3125 C 473.835938 293.261719 494.261719 293.710938 512.554688 293.535156 C 531.246094 293.359375 552.425781 292.015625 567.917969 302.472656 C 578.128906 309.367188 585.09375 321.949219 587.027344 334.121094 Z M 587.027344 334.121094 " fill-opacity="1" fill-rule="nonzero"/><path fill="#0d6f9f" d="M 512.175781 373.933594 L 496.019531 351.027344 L 512.175781 312.375 L 528.328125 351.027344 Z M 512.175781 316.539062 L 496.019531 293.632812 L 528.328125 293.632812 Z M 512.175781 316.539062 " fill-opacity="1" fill-rule="nonzero"/></svg>